<svg xmlns="http://www.w3.org/2000/svg" width="27" height="25" fill="none" viewBox="0 0 27 25">
  <path fill="#1F2731" d="m21.63 15.073.719.352.004-.009-.723-.343Zm.374 1.855-.542.589.006.006.536-.595Zm.068.061-.536.595.536-.595Zm0 2.885-.535-.594h-.001l.536.594Zm-3.204 0 .536-.594-.536.594Zm-.068-.06.535-.595-.006-.006-.529.6Zm-2.06-.337.288.746.007-.003-.295-.743Zm-1.132 1.54-.8-.004v.003h.8Zm-4.529.08h.8v-.003l-.8.004Zm-1.132-1.539-.295.744.007.003.288-.747Zm-2.06.337-.529-.6-.007.005.536.595Zm-.068.06-.535-.594.535.595Zm-3.204 0 .536-.593-.536.594Zm-.664-1.442h.8-.8Zm.664-1.442.535.595-.535-.595Zm.068-.061.535.594.007-.006-.542-.588Zm.374-1.856-.723.344.004.008.719-.352Zm-1.71-1.02.003-.8h-.003v.8ZM.8 12.097H0h.8Zm2.264-2.04v.8-.8Zm.102 0v.8h.003l-.003-.8Zm1.71-1.019-.719-.352-.004.009.722.343Zm-.374-1.855.542-.589-.007-.006-.535.595Zm-.068-.061.535-.595-.535.595Zm0-2.885.535.594-.535-.594Zm3.204 0-.536.594.536-.594Zm.068.06-.536.595.007.006.529-.6Zm.973.453-.13.79.13-.79Zm1.087-.116v-.8a.8.8 0 0 0-.295.057l.295.743Zm.09 0v.8a.8.8 0 0 0 .289-.053l-.288-.747Zm1.133-1.54.8.004v-.003h-.8ZM13.253.8V0v.8Zm2.264 2.039h-.8.8Zm0 .092h-.8v.003l.8-.003Zm1.132 1.54.296-.744-.008-.003-.288.746Zm2.06-.337.53.6.006-.006-.536-.594Zm.068-.062.536.595-.536-.595Zm1.602-.598v.8-.8Zm1.602.598-.536.595h.001l.535-.595Zm0 2.886-.535-.595.535.595Zm-.068.06-.535-.594-.007.006.542.589Zm-.373 1.856h.8a.8.8 0 0 0-.082-.352l-.718.352Zm0 .082h-.8a.8.8 0 0 0 .077.344l.723-.344Zm1.71 1.02-.004.8h.003v-.8Zm.09 4.077v-.8h-.003l.003.8Zm-6.69-2.039h-.8c0 1.17-1.082 2.259-2.597 2.259v1.6c2.236 0 4.196-1.651 4.196-3.859h-.8Zm-3.397 3.059v-.8c-1.515 0-2.596-1.088-2.596-2.259h-1.6c0 2.208 1.96 3.859 4.196 3.859v-.8Zm-3.396-3.059h.8c0-1.17 1.081-2.258 2.596-2.258v-1.6c-2.237 0-4.196 1.65-4.196 3.858h.8Zm3.396-3.058v.8c1.515 0 2.596 1.088 2.596 2.258h1.6c0-2.208-1.96-3.858-4.196-3.858v.8Zm8.377 6.117-.718-.353a2.33 2.33 0 0 0-.195 1.49l.784-.158.784-.158a.73.73 0 0 1 .064-.47l-.719-.351Zm-.129.979-.784.158c.102.505.367.958.745 1.307l.542-.589.542-.588a.833.833 0 0 1-.26-.446l-.785.158Zm.503.876-.536.595.068.06.536-.594.535-.594-.068-.061-.535.594Zm.068.061-.535.595c.133.12.233.257.3.401l.726-.334.727-.334a2.84 2.84 0 0 0-.683-.923l-.535.595Zm.491.662-.726.334c.066.145.099.296.099.447h1.6c0-.386-.085-.765-.246-1.115l-.727.334Zm.173.78h-.8c0 .151-.033.303-.1.447l.727.335.727.334c.161-.35.246-.73.246-1.115h-.8Zm-.173.782-.726-.335a1.241 1.241 0 0 1-.3.402l.535.594.535.595a2.84 2.84 0 0 0 .683-.922l-.727-.334Zm-.491.661-.536-.594a1.48 1.48 0 0 1-.479.287l.28.75.28.75a3.11 3.11 0 0 0 .99-.599l-.535-.594Zm-.735.443-.28-.75a1.684 1.684 0 0 1-.587.105v1.6c.392 0 .781-.07 1.147-.206l-.28-.75Zm-.867.155v-.8c-.204 0-.403-.036-.587-.105l-.28.75-.28.75c.366.136.755.205 1.147.205v-.8Zm-.867-.155.28-.75a1.494 1.494 0 0 1-.48-.287l-.535.594-.536.595c.288.259.625.46.991.597l.28-.75Zm-.735-.443.535-.594-.068-.061-.535.594-.535.595.068.06.535-.594Zm-.068-.06.529-.601a2.746 2.746 0 0 0-1.373-.642l-.129.79-.129.79c.226.036.425.132.573.262l.529-.6Zm-.973-.454.129-.789a2.858 2.858 0 0 0-1.512.162l.296.744.295.743c.205-.081.437-.107.663-.07l.13-.79Zm-1.087.117-.288-.747c-.47.181-.882.486-1.178.89l.644.474.645.474a1.04 1.04 0 0 1 .465-.345l-.288-.746Zm-.822.617-.644-.474a2.365 2.365 0 0 0-.466 1.393l.8.003.8.004c0-.153.05-.31.155-.452l-.645-.474Zm-.31.922h-.8v.173h1.6v-.173h-.8Zm0 .173h-.8c0 .3-.132.607-.399.848l.535.594.536.595a2.742 2.742 0 0 0 .928-2.037h-.8Zm-.664 1.442-.535-.594c-.27.243-.652.391-1.066.391v1.6c.788 0 1.557-.28 2.137-.802l-.536-.595Zm-1.6.597v-.8c-.414 0-.796-.148-1.066-.391l-.536.594-.535.595c.58.522 1.35.802 2.136.802v-.8Zm-1.602-.597.536-.594a1.142 1.142 0 0 1-.399-.848h-1.6c0 .782.346 1.512.928 2.037l.535-.595Zm-.663-1.442h.8v-.091h-1.6v.091h.8Zm0-.091.8-.004a2.365 2.365 0 0 0-.466-1.392l-.644.474-.645.474a.757.757 0 0 1 .155.451l.8-.003Zm-.31-.922.644-.474a2.635 2.635 0 0 0-1.178-.89l-.288.746-.288.747c.201.077.36.201.465.345l.645-.474Zm-.822-.618.296-.743a2.857 2.857 0 0 0-1.512-.163l.129.79.129.79c.226-.037.458-.012.663.07l.295-.744Zm-1.087-.116-.13-.79a2.746 2.746 0 0 0-1.372.642l.529.6.529.601c.148-.13.347-.227.573-.263l-.13-.79Zm-.973.453L7.35 19.3l-.067.061.535.595.535.594.068-.06-.535-.595Zm-.068.06-.536-.593c-.133.12-.295.218-.479.287l.28.75.28.749a3.09 3.09 0 0 0 .99-.598l-.535-.594Zm-.735.444-.28-.75a1.683 1.683 0 0 1-.587.105v1.6c.392 0 .781-.07 1.147-.206l-.28-.75Zm-.867.155v-.8c-.203 0-.403-.036-.587-.105l-.28.75-.28.749c.366.136.755.206 1.147.206v-.8Zm-.867-.155.28-.75a1.496 1.496 0 0 1-.48-.287l-.535.594-.536.594c.288.26.625.461.991.598l.28-.75Zm-.735-.443.535-.595a1.24 1.24 0 0 1-.3-.401l-.726.334-.727.335c.161.35.395.662.683.922l.535-.595Zm-.491-.662.726-.334a1.064 1.064 0 0 1-.099-.447h-1.6c0 .386.085.765.246 1.116l.727-.335Zm-.173-.78h.8c0-.151.033-.302.1-.447l-.727-.334-.727-.335c-.161.35-.246.73-.246 1.115h.8Zm.173-.781.726.334a1.24 1.24 0 0 1 .3-.401l-.535-.595-.535-.595a2.84 2.84 0 0 0-.683.922l.727.335Zm.491-.662.535.594.068-.06-.535-.595-.535-.595-.068.061.535.595Zm.068-.061.542.588c.378-.348.643-.801.745-1.307l-.784-.157-.785-.158a.832.832 0 0 1-.26.445l.542.589Zm.503-.877.784.158a2.33 2.33 0 0 0-.195-1.489l-.718.352-.719.352a.73.73 0 0 1 .063.47l.785.158Zm-.13-.979.723-.344a2.537 2.537 0 0 0-.998-1.083l-.41.687-.41.687a.94.94 0 0 1 .373.397l.723-.344Zm-.685-.74.41-.687a2.817 2.817 0 0 0-1.43-.392l-.004.8-.003.8c.226 0 .44.061.617.166l.41-.687Zm-1.024-.28v-.8h-.283v1.6h.283v-.8Zm-.283 0v-.8c-.414 0-.796-.148-1.065-.391l-.536.595-.535.594c.58.522 1.349.803 2.136.803v-.8Zm-1.6-.597.535-.594a1.143 1.143 0 0 1-.399-.847H0c0 .781.346 1.512.928 2.036l.535-.595ZM.8 12.096h.8c0-.3.132-.607.399-.848l-.536-.594-.535-.595A2.742 2.742 0 0 0 0 12.096h.8Zm.663-1.442.536.595c.27-.243.651-.392 1.065-.392v-1.6a3.19 3.19 0 0 0-2.136.803l.535.594Zm1.601-.597v.8h.102v-1.6h-.102v.8Zm.102 0 .003.8c.503-.002 1-.136 1.43-.393l-.409-.687-.41-.687a1.218 1.218 0 0 1-.617.167l.003.8Zm1.024-.28.41.687c.43-.257.782-.63.998-1.083l-.723-.344-.722-.343a.939.939 0 0 1-.373.396l.41.687Zm.685-.74.719.352A2.33 2.33 0 0 0 5.789 7.9l-.784.158-.785.158a.73.73 0 0 1-.063.47l.718.351Zm.13-.979.784-.158a2.432 2.432 0 0 0-.745-1.307l-.542.589-.542.588c.144.133.229.29.26.446l.785-.158Zm-.503-.876.535-.595-.068-.06-.535.594-.535.594.068.061.535-.594Zm-.068-.061.535-.595a1.24 1.24 0 0 1-.3-.402l-.726.335-.727.334c.161.35.395.663.683.922l.535-.594Zm-.491-.662.726-.335a1.065 1.065 0 0 1-.1-.446h-1.6c0 .386.085.765.247 1.115l.727-.334Zm-.173-.78h.8c0-.151.033-.303.1-.447l-.727-.335-.727-.334c-.162.35-.246.73-.246 1.115h.8Zm.173-.782.726.335a1.24 1.24 0 0 1 .3-.402l-.535-.594-.535-.595a2.84 2.84 0 0 0-.683.922l.727.334Zm.491-.661.536.594a1.47 1.47 0 0 1 .479-.287l-.28-.75-.28-.75a3.095 3.095 0 0 0-.99.598l.535.595Zm.735-.443.28.75a1.65 1.65 0 0 1 .587-.105v-1.6c-.392 0-.781.07-1.147.206l.28.749Zm.867-.155v.8c.203 0 .403.036.587.105l.28-.75.28-.75a3.283 3.283 0 0 0-1.147-.205v.8Zm.867.155-.28.75c.184.068.346.167.48.287l.535-.594.535-.595a3.095 3.095 0 0 0-.99-.597l-.28.749Zm.735.443-.536.594.068.061.536-.594.535-.595-.068-.06-.535.594Zm.068.06-.53.601c.386.34.865.559 1.374.642l.129-.79.129-.79a1.147 1.147 0 0 1-.574-.263l-.528.6Zm.973.453-.13.79a2.857 2.857 0 0 0 1.513-.162l-.296-.744-.295-.743a1.258 1.258 0 0 1-.663.07l-.13.79Zm1.087-.116v.8h.09v-1.6h-.09v.8Zm.09 0 .289.747c.468-.181.88-.487 1.178-.89l-.645-.474-.644-.474a1.037 1.037 0 0 1-.465.345l.288.746Zm.822-.617.645.474c.297-.405.463-.89.466-1.393l-.8-.003-.8-.004a.765.765 0 0 1-.155.452l.644.474Zm.31-.922h.8v-.255h-1.6v.255h.8Zm0-.255h.8c0-.3.132-.607.4-.847l-.536-.595-.535-.594a2.741 2.741 0 0 0-.928 2.036h.8Zm.664-1.442.535.595c.27-.243.652-.392 1.066-.392V0a3.19 3.19 0 0 0-2.136.803l.535.594Zm1.6-.597v.8c.415 0 .797.149 1.066.392l.536-.595.535-.594A3.197 3.197 0 0 0 13.253 0v.8Zm1.602.597-.535.595c.266.24.398.547.398.847h1.6c0-.782-.345-1.512-.928-2.036l-.535.594Zm.663 1.442h-.8v.092h1.6v-.092h-.8Zm0 .092-.8.003c.002.504.168.988.466 1.393l.645-.474.644-.474a.766.766 0 0 1-.155-.452l-.8.004Zm.31.922-.644.474c.297.403.71.709 1.178.89l.288-.747.288-.746a1.036 1.036 0 0 1-.465-.345l-.645.474Zm.822.617-.295.744c.477.19 1.003.245 1.511.162l-.128-.79-.13-.79a1.258 1.258 0 0 1-.662-.07l-.296.744Zm1.087.116.13.79a2.745 2.745 0 0 0 1.372-.642l-.529-.6-.528-.6c-.149.13-.347.226-.573.263l.128.79Zm.973-.452.536.594.068-.061-.536-.595-.535-.594-.068.061.535.595Zm.068-.062.536.595a1.5 1.5 0 0 1 .479-.288l-.28-.75-.28-.749a3.096 3.096 0 0 0-.99.598l.535.594Zm.735-.442.28.75c.184-.07.384-.106.587-.106v-1.6c-.391 0-.78.07-1.147.206l.28.75Zm.867-.155v.8c.204 0 .403.036.587.104l.28-.75.28-.749a3.283 3.283 0 0 0-1.147-.205v.8Zm.867.155-.28.75c.184.068.347.167.48.287l.535-.595.536-.594a3.094 3.094 0 0 0-.99-.598l-.28.75Zm.735.442-.535.595c.133.12.233.257.3.402l.727-.335.726-.334a2.839 2.839 0 0 0-.683-.922l-.535.594Zm.492.662-.727.335c.066.144.1.296.1.446h1.6c0-.385-.085-.765-.247-1.115l-.726.334Zm.172.781h-.8c0 .15-.033.302-.1.446l.728.335.726.334c.162-.35.246-.73.246-1.115h-.8Zm-.172.78-.727-.334a1.24 1.24 0 0 1-.3.402l.535.595.535.594c.288-.259.522-.571.683-.922l-.726-.334Zm-.492.663-.535-.595-.068.061.535.595.536.594.067-.06-.535-.595Zm-.068.06-.542-.588a2.432 2.432 0 0 0-.745 1.307l.785.158.784.158a.833.833 0 0 1 .26-.446l-.542-.588Zm-.502.877-.785-.158a2.33 2.33 0 0 0 .195 1.49l.719-.353.718-.352a.73.73 0 0 1-.063-.47l-.784-.157Zm.129.98h-.8v.08h1.6v-.08h-.8Zm0 .08-.723.345c.216.453.567.826.998 1.083l.41-.687.41-.687a.939.939 0 0 1-.373-.397l-.722.344Zm.685.74-.41.688c.431.257.928.39 1.431.392l.003-.8.003-.8c-.226 0-.44-.061-.617-.166l-.41.687Zm1.024.28v.8h.193v-1.6h-.193v.8Zm.193 0v.8c.413 0 .796.149 1.065.392l.535-.595.536-.594a3.197 3.197 0 0 0-2.136-.803v.8Zm1.6.597-.535.595c.267.24.399.547.399.847h1.6c0-.781-.346-1.512-.928-2.036l-.535.594Zm.664 1.442h-.8c0 .3-.132.607-.399.848l.535.594.536.594a2.741 2.741 0 0 0 .928-2.036h-.8Zm-.663 1.442-.536-.595c-.27.243-.652.392-1.066.392v1.6c.788 0 1.557-.28 2.137-.803l-.535-.594Zm-1.601.597v-.8h-.102v1.6h.102v-.8Zm-.102 0-.003-.8a2.82 2.82 0 0 0-1.431.393l.41.687.41.687c.176-.106.391-.166.617-.167l-.003-.8Zm-1.024.28-.41-.687c-.431.257-.783.63-.998 1.083l.722.344.723.343a.938.938 0 0 1 .372-.396l-.41-.687Z"/>
</svg>
