<svg xmlns="http://www.w3.org/2000/svg" width="51" height="23" fill="none" viewBox="0 0 51 23">
  <path fill="#1F2731" d="M.11 8.052 0 7.238c.293-.03.517-.088.671-.176a.74.74 0 0 0 .319-.396 2.06 2.06 0 0 0 .088-.649V1.705h2.97c.367 0 .69.07.968.209.279.132.499.348.66.649.161.3.242.7.242 1.199v4.125H4.741v-4.18c0-.41-.088-.697-.264-.858-.176-.161-.418-.242-.726-.242H2.244v3.267c0 .491-.077.891-.231 1.199-.147.3-.378.528-.693.682-.308.154-.711.253-1.21.297Zm7.24-.165V2.992l-.132-1.287h1.166l.143 1.287v4.895H7.35Zm2.632-2.31V2.992L9.85 1.705h1.166l.143 1.287v1.672l-.011.693-1.166.22Zm3.534 2.31 2.056-5.28h-3.31v-.902h4.488v.979l-2.057 5.203h-1.178Zm-1.255-5.28V0h1.057v2.607h-1.056Zm5.416 5.28v-.902h1.782V3.542c0-.337-.066-.576-.198-.715-.132-.14-.315-.224-.55-.253l-.748-.11.154-.88 1.133.154c.447.066.788.253 1.023.561.235.3.352.704.352 1.21v4.378h-2.948Zm4.39 0V2.992l-.132-1.287H23.1l.143 1.287v4.895h-1.177Zm2.631-2.31V2.992l-.131-1.287h1.166l.142 1.287v1.672l-.01.693-1.166.22Zm6.02 2.31-3.597-6.182h1.188l3.597 6.182h-1.188Zm-3.773 0v-.902h4.268l.341.902h-4.609Zm3.366-2.519-.66-1.012 1.111-2.651h1.166l-1.617 3.663Zm4.776 2.519-.099-.891c.242-.03.466-.08.671-.154a1.49 1.49 0 0 0 .539-.363c.161-.161.29-.381.385-.66.095-.286.158-.645.187-1.078l.165-2.134h-3.894v-.902H38.2l-.044.792-.154 1.969c-.03.52-.11.99-.242 1.408a3.269 3.269 0 0 1-.561 1.078 2.39 2.39 0 0 1-.88.682c-.352.161-.763.246-1.232.253Zm-2.068 2.2V4.785l.165-.748h1.001v6.05h-1.166Zm6.153-2.2v-.902h1.782V3.542c0-.337-.066-.576-.198-.715-.132-.14-.315-.224-.55-.253l-.748-.11.154-.88 1.133.154c.448.066.789.253 1.023.561.235.3.352.704.352 1.21v4.378h-2.948Zm4.39 0V2.992l-.132-1.287h1.166l.143 1.287v4.895h-1.177Zm2.588 0v-.902h1.98c.242 0 .462-.033.66-.099.205-.073.38-.183.528-.33.146-.147.26-.334.34-.561.081-.235.122-.513.122-.836v-.737a2.77 2.77 0 0 0-.154-.979 1.173 1.173 0 0 0-.462-.616c-.206-.147-.47-.22-.792-.22h-.99l-.253 1.089c-.074.36-.06.634.044.825.102.183.337.312.704.385l-.21.77c-.476-.037-.843-.143-1.1-.319a1.237 1.237 0 0 1-.483-.715c-.066-.3-.063-.645.01-1.034l.43-1.903h2.09c.49 0 .909.11 1.254.33.352.22.62.535.803.946.19.41.286.906.286 1.485v.638c0 .477-.066.891-.198 1.243a2.217 2.217 0 0 1-.54.869c-.234.227-.51.396-.824.506a2.99 2.99 0 0 1-1.012.165H46.15Zm-28.48 14v-4.18c0-.41-.091-.697-.274-.858-.176-.161-.418-.242-.726-.242h-2.695v-.902h2.992c.366 0 .689.07.968.209.286.132.506.348.66.649.161.3.242.7.242 1.199v4.125H17.67Zm-3.728 0v-2.981l.165-.737h1v3.718h-1.165Zm8.3.022.11-.902c.58.125 1.042.114 1.386-.033.345-.147.59-.414.738-.803.154-.396.223-.902.209-1.518-.008-.52-.074-.931-.198-1.232-.118-.308-.283-.528-.495-.66a1.334 1.334 0 0 0-.738-.198 1.26 1.26 0 0 0-.66.165c-.183.103-.33.246-.44.429a1.88 1.88 0 0 0-.23.616l-.297-.55c.139-.557.377-.96.715-1.21a1.856 1.856 0 0 1 1.133-.385c.344 0 .656.059.934.176.287.11.532.286.738.528.205.242.363.557.473.946.117.381.18.84.186 1.375.015.829-.117 1.514-.396 2.057-.278.543-.685.92-1.22 1.133-.536.213-1.185.235-1.948.066Zm-2.2-.022.792-4.257-.857-1.925h1.21l.758 1.969-.726 4.213h-1.177Zm6.678 0v-.902h1.585c.359 0 .652-.07.88-.209.227-.147.396-.356.506-.627.11-.279.165-.605.165-.979v-.748c0-.381-.056-.708-.166-.979a1.247 1.247 0 0 0-.506-.616c-.227-.147-.52-.22-.88-.22h-1.583v-.902h1.87c.527 0 .971.11 1.33.33.367.22.642.539.826.957.19.41.285.906.285 1.485v.638c0 .587-.095 1.089-.285 1.507-.184.41-.459.726-.825.946-.36.213-.803.319-1.332.319h-1.87Zm9.335 0v-4.07c0-.807-.334-1.21-1.001-1.21h-2.86v-.902h3.157c.381 0 .711.077.99.231.286.154.502.392.649.715.154.315.23.722.23 1.221v4.015h-1.165Zm-3.861 0v-5.709h1.177v5.709h-1.177Z"/>
</svg>
