<svg xmlns="http://www.w3.org/2000/svg" width="25" height="21" fill="none" viewBox="0 0 25 21">
  <path fill="#1F2731" d="m19.941 12.89.707.376.004-.008-.71-.367Zm.344 1.573-.518.61.007.005.51-.615Zm.062.052-.511.615.511-.616Zm0 2.444-.51-.616h-.001l.511.616Zm-2.944 0 .511-.616-.511.616Zm-.062-.052.51-.616-.006-.005-.504.62Zm-1.894-.285.268.754.008-.003-.276-.751Zm-1.04 1.304-.8-.004v.004h.8Zm-4.161.069h.8v-.004l-.8.004Zm-1.04-1.304-.276.751.007.003.269-.754Zm-1.894.285-.504-.621-.007.005.511.616Zm-.062.052-.511-.616.51.616Zm-2.944 0 .511-.615v-.001l-.511.616Zm-.61-1.222h.8-.8Zm.61-1.222.51.615-.51-.615Zm.062-.052.511.615.007-.005-.518-.61Zm.462-.742.782.17-.782-.17Zm-.119-.83-.71.367.004.008.706-.375Zm-1.57-.864.002-.8h-.002v.8ZM.8 10.37H0h.8Zm2.08-1.727v.8-.8Zm.094 0v.8h.003l-.003-.8Zm1.571-.864-.706-.375-.005.008.711.367Zm-.343-1.572.517-.61-.006-.005-.511.615Zm-.063-.051.511-.616-.51.616Zm0-2.445.511.616-.51-.616Zm2.944 0-.511.616.511-.616Zm.063.052-.511.616.006.005.505-.62Zm1.893.285v-.8a.8.8 0 0 0-.275.05l.275.75Zm.083 0v.8a.8.8 0 0 0 .268-.046l-.268-.754Zm1.04-1.304.8.004v-.004h-.8ZM12.244.8V0v.8Zm2.08 1.727h-.8.8Zm0 .078h-.8v.004l.8-.004Zm1.041 1.304.275-.751-.007-.003-.268.754Zm1.893-.285.505.621.006-.005-.51-.616Zm.063-.052.51.616h.001l-.511-.616Zm1.472-.506v.8-.8Zm1.472.506-.511.616.51-.616Zm0 2.444-.51-.615h-.001l.51.615Zm-.063.052-.51-.615-.007.005.517.61Zm-.343 1.572h.8a.8.8 0 0 0-.094-.376l-.706.376Zm0 .07h-.8a.8.8 0 0 0 .09.366l.71-.367Zm1.57.863-.002.8h.003v-.8Zm.084 3.454v-.8h-.003l.003.8ZM15.364 10.3h-.8c0 .856-.893 1.79-2.32 1.79v1.6c2.019 0 3.92-1.384 3.92-3.39h-.8Zm-3.12 2.59v-.8c-1.428 0-2.322-.934-2.322-1.79h-1.6c0 2.006 1.902 3.39 3.921 3.39v-.8ZM9.121 10.3h.8c0-.856.894-1.79 2.321-1.79v-1.6c-2.02 0-3.92 1.384-3.92 3.39h.8Zm3.121-2.59v.8c1.428 0 2.321.934 2.321 1.79h1.6c0-2.006-1.901-3.39-3.92-3.39v.8Zm7.698 5.18-.706-.375a2.005 2.005 0 0 0-.194 1.376l.782-.17.781-.171a.406.406 0 0 1 .044-.284l-.707-.375Zm-.118.83-.782.171c.102.469.366.876.726 1.182l.518-.61.517-.61a.565.565 0 0 1-.198-.303l-.781.17Zm.462.743-.511.615.062.052.511-.616.511-.615-.062-.052-.511.616Zm.062.052-.51.615a.947.947 0 0 1 .246.302l.716-.357.715-.357a2.547 2.547 0 0 0-.656-.82l-.511.617Zm.452.56-.716.357a.678.678 0 0 1 .074.305h1.6c0-.356-.084-.702-.243-1.02l-.715.358Zm.158.662h-.8a.677.677 0 0 1-.074.304l.716.357.715.357c.159-.316.243-.663.243-1.018h-.8Zm-.158.661-.716-.357a.946.946 0 0 1-.247.302l.511.616.51.615c.273-.226.5-.502.657-.819l-.715-.357Zm-.452.56-.511-.615a1.35 1.35 0 0 1-.425.234l.26.756.261.757a2.95 2.95 0 0 0 .926-.516l-.511-.615Zm-.675.376-.26-.757a1.67 1.67 0 0 1-.537.088v1.6c.36 0 .719-.059 1.057-.175l-.26-.756Zm-.797.131v-.8c-.187 0-.37-.03-.536-.088l-.26.756-.261.757c.338.116.697.175 1.057.175v-.8Zm-.797-.131.26-.757a1.35 1.35 0 0 1-.424-.234l-.511.616-.511.615c.272.226.588.4.926.516l.26-.756Zm-.675-.375.511-.616-.062-.052-.511.616-.511.615.062.052.511-.615Zm-.062-.052.504-.621a2.658 2.658 0 0 0-1.28-.554l-.118.791-.12.791c.208.032.384.112.51.214l.504-.621Zm-.894-.384.119-.79a2.84 2.84 0 0 0-1.394.138l.275.75.276.752c.184-.068.397-.09.604-.059l.12-.79Zm-1 .099-.268-.754a2.48 2.48 0 0 0-1.112.778l.625.499.626.499a.884.884 0 0 1 .397-.268l-.268-.754Zm-.755.523-.625-.5a2.06 2.06 0 0 0-.46 1.277l.8.004.8.004a.46.46 0 0 1 .11-.286l-.625-.5Zm-.285.78h-.8v.148h1.6v-.147h-.8Zm0 .148h-.8c0 .192-.091.415-.32.606l.51.615.512.616c.55-.458.898-1.114.898-1.837h-.8Zm-.61 1.221-.51-.615a1.516 1.516 0 0 1-.96.321v1.6c.72 0 1.435-.236 1.982-.69l-.511-.616Zm-1.47.506V19a1.52 1.52 0 0 1-.96-.321l-.512.615-.51.616c.546.454 1.26.69 1.981.69v-.8Zm-1.472-.506.511-.615c-.23-.19-.32-.413-.32-.606h-1.6c0 .723.347 1.38.898 1.837l.511-.616Zm-.61-1.221h.8v-.078h-1.6v.078h.8Zm0-.078.8-.004a2.06 2.06 0 0 0-.46-1.276l-.625.499-.625.499c.08.1.11.2.11.286l.8-.004Zm-.285-.781.626-.499a2.479 2.479 0 0 0-1.112-.778l-.268.754-.269.754a.884.884 0 0 1 .398.268l.625-.5Zm-.754-.523.275-.751a2.84 2.84 0 0 0-1.394-.139l.12.791.118.792c.208-.032.42-.01.605.058l.276-.751Zm-1-.099-.119-.79c-.467.07-.914.256-1.28.553l.505.62.505.622c.125-.102.3-.182.508-.213l-.119-.792Zm-.894.384-.51-.616-.063.052.51.616.512.615.062-.052-.51-.615Zm-.062.052-.512-.615a1.353 1.353 0 0 1-.424.233l.26.757.26.756c.34-.116.655-.29.927-.516l-.511-.615Zm-.675.375-.26-.757c-.168.058-.35.088-.537.088v1.6c.36 0 .719-.058 1.057-.175l-.26-.756Zm-.797.131v-.8c-.187 0-.37-.03-.537-.088l-.26.757-.26.756c.338.117.697.175 1.057.175v-.8Zm-.797-.131.26-.757a1.353 1.353 0 0 1-.424-.233l-.511.615-.512.615c.273.226.588.4.927.516l.26-.756Zm-.675-.375.51-.616a.946.946 0 0 1-.246-.302l-.716.357-.716.358c.158.316.384.592.657.819l.51-.616Zm-.452-.56.716-.358a.677.677 0 0 1-.074-.304h-1.6c0 .355.084.702.242 1.019l.716-.358Zm-.158-.662h.8c0-.1.023-.202.074-.304l-.716-.358-.716-.357a2.277 2.277 0 0 0-.242 1.019h.8Zm.158-.662.716.358a.947.947 0 0 1 .246-.303l-.51-.615-.51-.616a2.546 2.546 0 0 0-.658.819l.716.357Zm.452-.56.51.615.063-.052-.51-.615-.512-.616-.062.052.51.616Zm.062-.052.518.61a2.16 2.16 0 0 0 .726-1.182l-.782-.17-.782-.171a.564.564 0 0 1-.197.303l.517.61Zm.462-.742.782.17a2.01 2.01 0 0 0-.194-1.376l-.707.376-.706.375a.406.406 0 0 1 .043.284l.782.17Zm-.119-.83.711-.367a2.325 2.325 0 0 0-.955-.96l-.385.7-.386.701a.73.73 0 0 1 .305.293l.71-.367Zm-.63-.627.386-.7a2.775 2.775 0 0 0-1.324-.337l-.002.8-.003.8c.208.001.402.053.558.138l.386-.7Zm-.94-.237v-.8h-.26v1.6h.26v-.8Zm-.26 0v-.8c-.383 0-.727-.127-.96-.321l-.512.615-.51.616c.546.454 1.26.69 1.982.69v-.8Zm-1.472-.506.511-.615c-.229-.19-.32-.413-.32-.606H0c0 .723.347 1.38.898 1.837l.511-.616ZM.8 10.37h.8c0-.194.091-.416.32-.607l-.51-.615-.512-.616C.348 8.99 0 9.646 0 10.37h.8Zm.61-1.222.51.615c.234-.194.578-.321.96-.321v-1.6c-.72 0-1.435.236-1.982.69l.511.616Zm1.47-.506v.8h.094v-1.6h-.093v.8Zm.094 0 .003.8A2.775 2.775 0 0 0 4.3 9.106l-.386-.701-.385-.701c-.156.086-.35.137-.558.138l.002.8Zm.941-.237.386.7a2.32 2.32 0 0 0 .955-.96l-.711-.367-.71-.367a.73.73 0 0 1-.305.293l.385.7Zm.63-.627.706.376c.225-.423.297-.905.194-1.376l-.781.17-.782.171c.02.09.009.185-.043.284l.706.375Zm.119-.83.781-.17a2.16 2.16 0 0 0-.726-1.182l-.517.61-.518.61c.12.102.178.211.198.303l.782-.17Zm-.462-.742.51-.615-.062-.052-.51.616-.512.615.063.052.51-.616Zm-.063-.051.511-.616a.947.947 0 0 1-.247-.302l-.715.357-.716.357c.158.317.384.593.657.82l.51-.616Zm-.451-.561.715-.357a.677.677 0 0 1-.074-.305h-1.6c0 .356.085.702.243 1.02l.716-.358Zm-.159-.662h.8c0-.098.023-.201.074-.304l-.715-.357-.716-.357a2.277 2.277 0 0 0-.243 1.018h.8Zm.159-.661.715.357a.947.947 0 0 1 .247-.302l-.51-.616-.511-.615a2.545 2.545 0 0 0-.657.819l.716.357Zm.451-.56.512.615a1.35 1.35 0 0 1 .424-.234l-.26-.756-.26-.757a2.95 2.95 0 0 0-.927.516l.511.615Zm.676-.375.26.756c.167-.057.35-.088.536-.088v-1.6c-.36 0-.718.059-1.057.175l.26.757Zm.796-.132v.8c.187 0 .37.03.537.088l.26-.756.26-.757a3.255 3.255 0 0 0-1.057-.175v.8Zm.797.132-.26.756c.167.057.31.139.424.234l.511-.616.512-.615a2.95 2.95 0 0 0-.927-.516l-.26.757Zm.675.374-.51.616.062.052.51-.616.512-.615-.063-.052-.51.615Zm.063.052-.505.621c.365.297.813.484 1.28.554l.119-.791.119-.791a1.06 1.06 0 0 1-.509-.214l-.504.621Zm.894.384-.12.79c.468.071.952.025 1.394-.138l-.275-.75-.275-.752a1.24 1.24 0 0 1-.605.059l-.12.79Zm1-.099v.8h.082v-1.6H9.04v.8Zm.082 0 .268.754a2.48 2.48 0 0 0 1.113-.778l-.626-.499-.625-.499a.884.884 0 0 1-.398.269l.268.753Zm.755-.523.626.5a2.06 2.06 0 0 0 .46-1.277l-.8-.004-.8-.004c0 .086-.03.185-.111.286l.625.5Zm.286-.78h.8v-.217h-1.6v.216h.8Zm0-.217h.8c0-.193.09-.415.32-.606l-.511-.615-.511-.616c-.551.458-.898 1.114-.898 1.837h.8Zm.609-1.221.511.615c.234-.193.577-.321.96-.321V0c-.72 0-1.435.236-1.982.69l.511.616ZM12.243.8v.8c.383 0 .727.128.96.321l.511-.615.511-.616C13.68.236 12.964 0 12.243 0v.8Zm1.471.506-.51.615c.229.19.32.413.32.606h1.6c0-.723-.348-1.38-.899-1.837l-.51.616Zm.61 1.221h-.8v.078h1.6v-.078h-.8Zm0 .078-.8.004c.002.47.17.914.46 1.276l.625-.499.626-.499a.462.462 0 0 1-.111-.286l-.8.004Zm.285.781-.625.499c.287.36.678.624 1.112.778l.268-.754.268-.754a.883.883 0 0 1-.397-.268l-.626.5Zm.755.523-.275.751a2.84 2.84 0 0 0 1.393.139l-.119-.791-.119-.792a1.24 1.24 0 0 1-.605-.058l-.275.751Zm1 .099.118.79a2.66 2.66 0 0 0 1.28-.553l-.505-.62-.504-.622a1.06 1.06 0 0 1-.509.213l.12.792Zm.893-.384.511.616.063-.052-.511-.616-.511-.615-.063.052.511.615Zm.063-.052.511.616c.114-.095.258-.177.424-.234l-.26-.757-.26-.756c-.338.116-.654.29-.927.516l.512.615Zm.675-.375.26.757c.167-.058.35-.088.537-.088v-1.6c-.36 0-.719.058-1.057.175l.26.756Zm.797-.131v.8c.187 0 .37.03.536.088l.26-.757.26-.756a3.255 3.255 0 0 0-1.056-.175v.8Zm.796.131-.26.757c.167.057.31.139.425.234l.51-.616.512-.615a2.95 2.95 0 0 0-.926-.516l-.26.756Zm.676.375-.51.616A.947.947 0 0 1 20 4.49l.715-.357.716-.358a2.544 2.544 0 0 0-.657-.819l-.51.616Zm.451.56L20 4.49a.678.678 0 0 1 .074.304h1.6c0-.355-.085-.702-.243-1.019l-.716.358Zm.159.662h-.8a.678.678 0 0 1-.074.304l.715.358.716.357c.158-.317.243-.664.243-1.019h-.8Zm-.159.662L20 5.098a.947.947 0 0 1-.247.303l.51.615.511.616c.273-.226.5-.503.657-.819l-.716-.357Zm-.451.56-.511-.615-.063.052.511.615.511.616.063-.052-.511-.616Zm-.063.052-.517-.61a2.16 2.16 0 0 0-.726 1.182l.782.17.781.171a.564.564 0 0 1 .198-.303l-.518-.61Zm-.462.742-.781-.17c-.103.47-.031.953.194 1.376l.706-.376.706-.376a.406.406 0 0 1-.043-.283l-.782-.17Zm.12.83h-.8v.07h1.6v-.07h-.8Zm0 .07-.712.366c.213.412.553.74.956.96l.385-.7.385-.701a.73.73 0 0 1-.304-.293l-.71.367Zm.629.626-.385.7a2.77 2.77 0 0 0 1.323.337l.003-.8.003-.8a1.191 1.191 0 0 1-.559-.138l-.385.7Zm.94.237v.8h.178v-1.6h-.177v.8Zm.178 0v.8c.383 0 .726.127.96.321l.511-.615.511-.616c-.547-.454-1.261-.69-1.982-.69v.8Zm1.471.506-.511.615c.23.19.32.413.32.606h1.6c0-.723-.347-1.38-.898-1.837l-.511.616Zm.61 1.221h-.8c0 .193-.092.415-.321.606l.511.615.511.616c.551-.458.898-1.114.898-1.837h-.8Zm-.61 1.221-.511-.615a1.517 1.517 0 0 1-.96.321v1.6c.72 0 1.435-.236 1.982-.69l-.511-.616Zm-1.471.506v-.8h-.094v1.6h.094v-.8Zm-.094 0-.003-.8a2.776 2.776 0 0 0-1.323.336l.385.701.386.701c.155-.085.35-.137.558-.138l-.003-.8Zm-.94.237-.386-.7c-.403.22-.743.548-.956.96l.711.367.711.367a.73.73 0 0 1 .305-.293l-.386-.7Z"/>
</svg>
