<svg xmlns="http://www.w3.org/2000/svg" width="41" height="23" fill="none" viewBox="0 0 41 23">
  <path fill="#1F2731" d="M3.883 7.887v-4.18c0-.41-.088-.697-.264-.858-.176-.161-.418-.242-.726-.242H.726v-.902H3.19c.367 0 .69.07.968.209.279.132.499.348.66.649.161.3.242.7.242 1.199v4.125H3.883Zm-3.608 0v-.902h4.367l-.055.902H.275Zm-.275 0V1.705h1.177v6.182H0Zm7.392 0 2.057-5.28H6.138v-.902h4.488v.979L8.569 7.887H7.392Zm-1.254-5.28V0h1.056v2.607H6.138Zm7.681 5.28L13.39 5.5V3.531c0-.315-.044-.546-.132-.693-.08-.147-.238-.238-.473-.275l-.704-.099.154-.88 1.09.154c.447.059.762.227.945.506.19.271.286.66.286 1.166v2.112l.374 2.365h-1.11Zm-2.079.176-.429-.935c.528-.176.964-.407 1.31-.693.351-.286.626-.649.824-1.089l.385.66a4.817 4.817 0 0 1-.506.902 2.822 2.822 0 0 1-.67.682c-.258.19-.562.348-.914.473Zm6.641-2.486V2.992l-.132-1.287h1.166l.143 1.287v1.672l-.01.693-1.167.22Zm5.272 2.31v-4.18c0-.41-.088-.697-.264-.858-.176-.161-.418-.242-.726-.242h-2.035v-.902h2.332c.367 0 .69.07.968.209.279.132.499.348.66.649.161.3.242.7.242 1.199v4.125h-1.177Zm4.626.022.11-.902c.579.125 1.041.114 1.386-.033.344-.147.59-.414.737-.803.154-.396.223-.902.209-1.518-.008-.52-.074-.931-.198-1.232-.118-.308-.283-.528-.495-.66a1.334 1.334 0 0 0-.737-.198 1.26 1.26 0 0 0-.66.165c-.184.103-.33.246-.44.429-.11.183-.187.389-.231.616l-.297-.55c.139-.557.377-.96.715-1.21a1.855 1.855 0 0 1 1.133-.385c.344 0 .656.059.935.176.286.11.531.286.737.528.205.242.363.557.473.946.117.381.18.84.187 1.375.014.829-.118 1.514-.396 2.057-.279.543-.686.92-1.221 1.133-.536.213-1.185.235-1.947.066Zm-2.2-.022.792-4.257-.858-1.925h1.21l.759 1.969-.726 4.213h-1.177Zm7.03 0V2.992l-.132-1.287h1.166l.143 1.287v4.895h-1.177Zm6.371 0v-4.07c0-.807-.333-1.21-1-1.21h-2.86v-.902h3.157c.38 0 .71.077.99.231.285.154.502.392.648.715.154.315.232.722.232 1.221v4.015H39.48Zm-3.86 0V2.178h1.177v5.709H35.62Zm-28.44 14v-4.18c0-.41-.087-.697-.263-.858-.176-.161-.418-.242-.726-.242H4.024v-.902h2.464c.366 0 .69.07.968.209.278.132.498.348.66.649.161.3.242.7.242 1.199v4.125H7.18Zm-3.607 0v-.902H7.94l-.055.902H3.573Zm-.275 0v-6.182h1.177v6.182H3.298Zm6.49-2.31v-2.585l-.133-1.287h1.166l.143 1.287v1.672l-.01.693-1.167.22Zm2.631 0v-2.585l-.132-1.287h1.166l.143 1.287v1.672l-.01.693-1.167.22Zm2.192 2.475-.11-.814c.293-.03.517-.088.671-.176a.74.74 0 0 0 .32-.396c.058-.176.087-.392.087-.649v-4.312h2.97c.367 0 .69.07.968.209.279.132.499.348.66.649.161.3.242.7.242 1.199v4.125h-1.177v-4.18c0-.41-.088-.697-.264-.858-.176-.161-.418-.242-.726-.242h-1.507v3.267c0 .491-.077.891-.23 1.199-.148.3-.379.528-.694.682-.308.154-.711.253-1.21.297Zm7.24-.165v-4.895l-.132-1.287h1.166l.143 1.287v4.895H21.85Zm2.28 0v-.902h1.584c.359 0 .652-.07.88-.209.227-.147.396-.356.506-.627.11-.279.165-.605.165-.979v-.748c0-.381-.055-.708-.165-.979a1.247 1.247 0 0 0-.506-.616c-.228-.147-.521-.22-.88-.22H24.13v-.902H26c.528 0 .971.11 1.33.33.367.22.642.539.826.957.19.41.286.906.286 1.485v.638c0 .587-.096 1.089-.286 1.507-.184.41-.459.726-.825.946-.36.213-.803.319-1.331.319h-1.87Zm5.594-2.31v-2.585l-.132-1.287h1.166l.143 1.287v1.672l-.011.693-1.166.22Zm7.945 2.31h-1.254l-2.321-3.509-1.09 3.509h-1.11l1.21-3.784.308-.77-1.012-1.628h1.188l.935 1.496.924 1.386.275-.957.56-1.925h1.123l-1.276 3.894 1.54 2.288Z"/>
</svg>
