<svg xmlns="http://www.w3.org/2000/svg" width="26" height="21" fill="none" viewBox="0 0 26 21">
  <path fill="#1F2731" d="m20.664 12.89.7.387.005-.008-.705-.378Zm.356 1.573-.507.619.007.005.5-.624Zm.065.052-.5.624.5-.624Zm0 2.444-.5-.625.5.625Zm-3.055 0 .5-.625-.5.625Zm-.065-.052.5-.625-.007-.005-.493.63ZM16 16.622l.26.757.006-.003-.266-.754Zm-1.08 1.304-.8-.004v.004h.8Zm-4.318.069h.8v-.004l-.8.004Zm-1.08-1.304-.266.754.007.003.26-.757Zm-1.964.285-.493-.63-.007.005.5.625Zm-.065.052-.5-.625.5.625Zm-3.055 0 .5-.625-.5.625Zm-.633-1.222h.8-.8Zm.633-1.222.5.625-.5-.625Zm.065-.052.5.624.006-.005-.506-.62Zm.356-1.572-.705.378.005.008.7-.386Zm-1.63-.864.003-.8h-.003v.8ZM.8 10.37H0h.8Zm2.16-1.727v.8-.8Zm.096 0v.8h.003l-.003-.8Zm1.63-.864-.7-.386-.005.008.705.378ZM4.33 6.206l.507-.619-.007-.005-.5.624Zm-.065-.051.5-.625-.5.625Zm0-2.445.5.625-.5-.625Zm3.056 0-.5.625.5-.625Zm.064.052-.5.625.007.005.493-.63Zm1.965.285v-.8a.8.8 0 0 0-.266.046l.266.754Zm.086 0v.8a.8.8 0 0 0 .26-.043l-.26-.757Zm1.08-1.304.8.004v-.004h-.8ZM12.675.8V0v.8Zm2.16 1.727h-.8.8Zm0 .078h-.8v.004l.8-.004Zm1.079 1.304.266-.754-.007-.003-.26.757Zm1.964-.285.494.63.006-.005-.5-.625Zm.065-.052.5.625-.5-.625Zm1.528-.506v.8-.8Zm1.527.506-.5.625.5-.625Zm0 2.444-.5-.625.5.625Zm-.064.052-.5-.625-.007.006.507.62Zm-.357 1.572h.8a.8.8 0 0 0-.1-.386l-.7.386Zm0 .07h-.8a.8.8 0 0 0 .095.377l.705-.378Zm1.63.863-.002.8h.002v-.8Zm.087 3.454v-.8h-.003l.003.8Zm-6.38-1.727h-.8c0 .832-.916 1.79-2.439 1.79v1.6c2.055 0 4.039-1.36 4.039-3.39h-.8Zm-3.239 2.59v-.8c-1.523 0-2.439-.958-2.439-1.79h-1.6c0 2.03 1.984 3.39 4.039 3.39v-.8ZM9.436 10.3h.8c0-.832.916-1.79 2.439-1.79v-1.6c-2.055 0-4.039 1.36-4.039 3.39h.8Zm3.239-2.59v.8c1.523 0 2.439.958 2.439 1.79h1.6c0-2.03-1.984-3.39-4.039-3.39v.8Zm7.989 5.18-.7-.386a1.966 1.966 0 0 0-.204 1.393l.78-.177.78-.176a.368.368 0 0 1 .044-.267l-.7-.386Zm-.123.83-.78.177c.107.475.383.883.753 1.185l.506-.62.506-.619a.56.56 0 0 1-.205-.3l-.78.178Zm.479.743-.5.624.065.052.5-.624.5-.625-.065-.052-.5.625Zm.065.052-.5.624a.963.963 0 0 1 .258.304l.71-.368.71-.368a2.557 2.557 0 0 0-.679-.817l-.5.624Zm.468.56-.71.368c.052.1.075.2.075.294h1.6c0-.36-.09-.711-.254-1.03l-.71.368Zm.165.662h-.8a.635.635 0 0 1-.075.293l.71.368.71.368c.166-.319.255-.67.255-1.03h-.8Zm-.165.661-.71-.368a.964.964 0 0 1-.258.304l.5.625.5.625c.28-.224.514-.5.679-.818l-.71-.368Zm-.468.56-.5-.624c-.121.097-.274.18-.453.24l.252.76.252.759c.345-.115.669-.286.949-.51l-.5-.624Zm-.701.376-.252-.76c-.179.06-.374.091-.575.091v1.6c.367 0 .733-.058 1.079-.172l-.252-.76Zm-.827.131v-.8c-.2 0-.396-.031-.575-.09l-.252.759-.252.759c.346.114.712.172 1.08.172v-.8Zm-.827-.131.252-.76a1.458 1.458 0 0 1-.452-.24l-.5.625-.5.624c.28.224.603.395.948.51l.252-.76Zm-.7-.375.5-.625-.065-.052-.5.625-.5.625.065.051.5-.624Zm-.065-.052.493-.63a2.765 2.765 0 0 0-1.306-.545l-.115.791-.115.792c.226.033.415.117.55.222l.493-.63Zm-.928-.384.115-.791a2.994 2.994 0 0 0-1.418.135l.266.755.266.754c.2-.07.43-.094.656-.06l.115-.793ZM16 16.622l-.26-.757c-.44.151-.843.411-1.14.77l.617.51.616.51a.949.949 0 0 1 .426-.276L16 16.622Zm-.783.523-.617-.51a2.034 2.034 0 0 0-.48 1.287l.8.004.8.004c0-.077.029-.173.113-.275l-.616-.51Zm-.296.78h-.8v.148h1.6v-.147h-.8Zm0 .148h-.8c0 .18-.09.402-.333.596l.5.625.5.625c.566-.453.932-1.111.932-1.846h-.8Zm-.633 1.221-.5-.625c-.248.199-.616.331-1.027.331v1.6c.735 0 1.465-.232 2.027-.681l-.5-.625Zm-1.527.506V19c-.41 0-.778-.132-1.026-.33l-.5.624-.5.625c.562.45 1.292.681 2.026.681v-.8Zm-1.526-.506.5-.625c-.244-.194-.333-.415-.333-.596h-1.6c0 .735.367 1.393.933 1.846l.5-.625Zm-.633-1.221h.8v-.078h-1.6v.078h.8Zm0-.078.8-.004a2.032 2.032 0 0 0-.48-1.287l-.616.51-.616.51a.435.435 0 0 1 .112.275l.8-.004Zm-.296-.781.616-.51a2.545 2.545 0 0 0-1.14-.77l-.26.757-.259.757a.95.95 0 0 1 .427.276l.616-.51Zm-.783-.523.266-.754a2.993 2.993 0 0 0-1.418-.136l.115.791.115.792c.225-.032.455-.01.655.061l.267-.754Zm-1.037-.099-.115-.791a2.766 2.766 0 0 0-1.306.545l.493.63.493.63c.134-.105.324-.19.55-.222l-.115-.792Zm-.928.384-.5-.625-.065.052.5.625.5.624.065-.051-.5-.625Zm-.065.052-.5-.625c-.12.097-.274.181-.452.24l.251.76.252.759a3.07 3.07 0 0 0 .95-.51l-.5-.624Zm-.7.375-.252-.76c-.179.06-.375.091-.575.091v1.6c.367 0 .733-.057 1.078-.172l-.252-.76Zm-.827.131v-.8c-.2 0-.397-.031-.575-.09l-.252.759-.252.759c.346.115.712.172 1.079.172v-.8Zm-.827-.131.252-.76a1.459 1.459 0 0 1-.453-.24l-.5.625-.5.624c.28.224.604.395.95.51l.25-.76Zm-.7-.375.499-.625a.962.962 0 0 1-.258-.304l-.71.368-.71.368c.164.318.398.594.679.818l.5-.625Zm-.47-.56.71-.369a.634.634 0 0 1-.074-.293h-1.6c0 .36.089.71.254 1.03l.71-.369Zm-.164-.662h.8c0-.094.023-.193.075-.294l-.71-.368-.71-.368c-.166.319-.255.67-.255 1.03h.8Zm.164-.662.71.368a.96.96 0 0 1 .259-.303l-.5-.625-.5-.625c-.28.224-.514.5-.679.817l.71.368Zm.47-.56.499.624.065-.052-.5-.624-.5-.625-.065.052.5.625Zm.064-.052.506.62c.37-.303.646-.71.753-1.186l-.78-.176-.78-.177a.56.56 0 0 1-.206.3l.507.619Zm.48-.742.78.176a1.967 1.967 0 0 0-.203-1.392l-.7.386-.701.386a.368.368 0 0 1 .043.267l.78.177Zm-.124-.83.705-.378a2.355 2.355 0 0 0-.984-.956l-.375.707-.374.707c.168.09.27.2.323.298l.705-.378Zm-.654-.627.375-.707a2.91 2.91 0 0 0-1.348-.33l-.003.8-.003.8c.226.001.437.055.605.144l.374-.707Zm-.976-.237v-.8h-.27v1.6h.27v-.8Zm-.27 0v-.8c-.411 0-.779-.132-1.027-.33l-.5.624-.5.625c.562.45 1.293.681 2.027.681v-.8Zm-1.527-.506.5-.624c-.243-.195-.332-.416-.332-.597H0c0 .735.366 1.393.933 1.846l.5-.625ZM.8 10.37h.8c0-.182.089-.403.332-.598l-.5-.624-.5-.625C.367 8.976 0 9.633 0 10.369h.8Zm.632-1.222.5.624c.248-.198.616-.33 1.027-.33v-1.6c-.734 0-1.465.232-2.026.681l.5.625Zm1.527-.506v.8h.097v-1.6H2.96v.8Zm.097 0 .003.8a2.913 2.913 0 0 0 1.348-.33l-.374-.707-.375-.707c-.168.09-.379.143-.604.144l.002.8Zm.977-.237.374.707c.411-.218.763-.543.985-.956l-.706-.378-.705-.378a.761.761 0 0 1-.323.298l.375.707Zm.653-.627.7.387c.236-.426.312-.915.204-1.393l-.78.177-.78.176a.371.371 0 0 1-.044.267l.7.386Zm.123-.83.78-.176a2.153 2.153 0 0 0-.752-1.185l-.507.62-.506.619a.56.56 0 0 1 .205.3l.78-.177Zm-.479-.742.5-.624-.065-.052-.5.625-.5.624.065.052.5-.625Zm-.065-.051.5-.625a.961.961 0 0 1-.258-.304l-.71.368-.71.368c.164.318.399.593.679.817l.5-.624Zm-.468-.561.71-.368a.634.634 0 0 1-.075-.294h-1.6c0 .36.09.711.254 1.03l.71-.368Zm-.165-.662h.8c0-.093.023-.192.075-.293l-.71-.368-.71-.368c-.166.319-.255.67-.255 1.03h.8Zm.165-.661.71.368a.96.96 0 0 1 .258-.304l-.5-.625-.499-.625c-.28.225-.515.5-.68.818l.71.368Zm.468-.56.5.624c.122-.097.274-.18.453-.24l-.252-.76-.252-.759a3.056 3.056 0 0 0-.949.51l.5.624Zm.701-.375.252.759c.179-.06.374-.091.575-.091v-1.6c-.367 0-.733.058-1.079.172l.252.76Zm.827-.132v.8c.2 0 .396.032.575.09l.252-.758.252-.76a3.435 3.435 0 0 0-1.079-.172v.8Zm.827.132-.252.759c.179.06.331.143.452.24l.5-.625.5-.624a3.056 3.056 0 0 0-.948-.51l-.252.76Zm.7.374-.5.625.066.052.5-.625.499-.624-.065-.052-.5.624Zm.065.052-.493.63c.375.293.832.477 1.306.545l.115-.791.115-.792a1.169 1.169 0 0 1-.55-.222l-.493.63Zm.928.384-.115.791c.475.07.968.024 1.418-.135l-.266-.755-.266-.754c-.2.07-.43.094-.656.061l-.115.792Zm1.037-.099v.8h.086v-1.6H9.35v.8Zm.086 0 .26.757c.441-.151.843-.41 1.14-.77l-.616-.51-.616-.51a.95.95 0 0 1-.427.277l.26.756Zm.784-.523.616.51c.3-.361.478-.808.48-1.287l-.8-.004-.8-.004a.435.435 0 0 1-.112.275l.616.51Zm.296-.78h.8v-.217h-1.6v.216h.8Zm0-.217h.8c0-.18.089-.402.332-.596l-.5-.625-.5-.625c-.566.453-.932 1.111-.932 1.846h.8Zm.632-1.221.5.625c.248-.199.616-.331 1.027-.331V0c-.734 0-1.465.232-2.026.681l.5.625ZM12.675.8v.8c.411 0 .779.132 1.027.33l.5-.624.5-.625C14.14.231 13.409 0 12.674 0v.8Zm1.527.506-.5.625c.243.194.332.415.332.596h1.6c0-.735-.366-1.393-.933-1.846l-.5.625Zm.632 1.221h-.8v.078h1.6v-.078h-.8Zm0 .078-.8.004c.002.478.18.926.48 1.287l.616-.51.616-.51a.435.435 0 0 1-.112-.275l-.8.004Zm.296.781-.616.51c.297.359.699.619 1.14.77l.26-.757.26-.757a.95.95 0 0 1-.428-.276l-.616.51Zm.784.523-.267.754c.451.16.943.205 1.418.136l-.114-.791-.115-.792c-.225.032-.456.01-.656-.061l-.266.754Zm1.037.099.114.791a2.765 2.765 0 0 0 1.306-.545l-.492-.63-.494-.63a1.168 1.168 0 0 1-.55.222l.116.792Zm.927-.384.5.625.065-.052-.5-.625-.5-.624-.064.051.5.625Zm.065-.052.5.625a1.45 1.45 0 0 1 .453-.24l-.252-.76-.252-.759a3.075 3.075 0 0 0-.949.51l.5.624Zm.701-.375.252.76c.178-.06.374-.091.575-.091v-1.6c-.367 0-.733.057-1.079.172l.252.76Zm.827-.131v.8c.2 0 .396.031.575.09l.252-.759.251-.759a3.435 3.435 0 0 0-1.078-.172v.8Zm.827.131-.252.76c.179.059.331.143.452.24l.5-.625.5-.624a3.056 3.056 0 0 0-.949-.51l-.251.76Zm.7.375-.5.625a.96.96 0 0 1 .259.304l.71-.368.71-.368a2.559 2.559 0 0 0-.68-.818l-.499.625Zm.469.56-.71.369c.052.1.075.2.075.293h1.6c0-.36-.09-.71-.255-1.03l-.71.369Zm.165.662h-.8a.634.634 0 0 1-.075.294l.71.368.71.368a2.24 2.24 0 0 0 .255-1.03h-.8Zm-.165.662-.71-.368a.96.96 0 0 1-.258.303l.5.625.499.625c.28-.224.515-.5.68-.817l-.711-.368Zm-.469.56-.5-.624-.064.051.5.625.5.625.064-.052-.5-.625Zm-.064.052-.507-.62c-.37.303-.645.71-.753 1.186l.78.176.78.177a.56.56 0 0 1 .206-.3l-.506-.619Zm-.48.742-.78-.176c-.108.478-.032.967.203 1.392l.7-.386.7-.386a.368.368 0 0 1-.043-.267l-.78-.177Zm.123.83h-.8v.07h1.6v-.07h-.8Zm0 .07-.705.377c.222.413.573.738.985.956l.374-.707.375-.707a.761.761 0 0 1-.324-.298l-.705.378Zm.654.626-.375.707c.412.218.88.328 1.349.33l.002-.8.003-.8a1.314 1.314 0 0 1-.604-.144l-.375.707Zm.976.237v.8h.184v-1.6h-.184v.8Zm.184 0v.8c.411 0 .779.132 1.027.33l.5-.624.5-.625c-.562-.45-1.293-.681-2.027-.681v.8Zm1.527.506-.5.624c.243.195.332.416.332.597h1.6c0-.735-.366-1.393-.933-1.846l-.5.625Zm.632 1.221h-.8c0 .181-.089.402-.332.597l.5.624.5.625c.566-.453.932-1.11.932-1.846h-.8Zm-.632 1.221-.5-.624c-.248.198-.616.33-1.027.33v1.6c.734 0 1.465-.232 2.026-.681l-.5-.625Zm-1.527.506v-.8h-.097v1.6h.097v-.8Zm-.097 0-.003-.8a2.91 2.91 0 0 0-1.348.33l.374.707.375.707c.168-.089.379-.143.604-.144l-.002-.8Zm-.977.237-.374-.707a2.355 2.355 0 0 0-.985.956l.706.378.705.378a.76.76 0 0 1 .323-.298l-.375-.707Z"/>
</svg>
