<svg xmlns="http://www.w3.org/2000/svg" width="29" height="23" fill="none" viewBox="0 0 29 23">
  <path fill="#1F2731" d="M6.16 6.182v-4.18c0-.41-.092-.697-.276-.858-.176-.161-.418-.242-.726-.242H3.101V0h2.354c.367 0 .69.07.968.209.286.132.506.348.66.649.162.3.242.7.242 1.199v4.125H6.16Zm-3.059 0V5.28h4.983v.902H3.101Zm6.14 0V1.287L9.11 0h1.166l.143 1.287v4.895H9.241Zm6.02 0L11.664 0h1.188l3.597 6.182h-1.188Zm-3.773 0V5.28h4.268l.341.902h-4.609Zm3.366-2.519-.66-1.012L15.305 0h1.166l-1.617 3.663Zm2.906.209V1.287L17.628 0h1.166l.143 1.287v1.672l-.011.693-1.166.22Zm2.225 2.673-.165-.924 2.222-.418c.396-.08.718-.198.968-.352.25-.161.44-.374.572-.638.14-.264.238-.587.297-.968.058-.389.091-.85.099-1.386.007-.535.01-1.155.01-1.859h1.167c0 .763-.015 1.445-.044 2.046a9.55 9.55 0 0 1-.198 1.595 3.484 3.484 0 0 1-.484 1.177c-.22.33-.524.605-.913.825-.381.22-.87.385-1.463.495l-2.068.407Zm1.727-1.177L20.326 0h1.177l1.33 5.368h-1.121ZM.132 17.872v-2.585L0 14h1.166l.143 1.287v1.672l-.01.693-1.167.22Zm4.502 2.31-.1-.891a3.1 3.1 0 0 0 .672-.154 1.49 1.49 0 0 0 .539-.363 1.69 1.69 0 0 0 .385-.66 4.41 4.41 0 0 0 .187-1.078l.165-2.134H2.588V14h5.159l-.044.792-.154 1.969c-.03.52-.11.99-.242 1.408a3.27 3.27 0 0 1-.561 1.078 2.39 2.39 0 0 1-.88.682c-.352.161-.763.246-1.232.253Zm-2.068 2.2V17.08l.165-.748h1v6.05H2.567Zm7.341-2.2 2.057-5.28h-3.31V14h4.487v.979l-2.057 5.203H9.907Zm-1.254-5.28v-2.607H9.71v2.607H8.653Zm6.164 5.39L14.08 14h1.177l.594 5.236a3.983 3.983 0 0 0 1.045-.231c.308-.125.568-.293.78-.506.22-.22.386-.488.496-.803.11-.323.157-.7.143-1.133v-.308a1.74 1.74 0 0 0-.132-.693 1.097 1.097 0 0 0-.418-.495c-.19-.132-.433-.205-.726-.22l-.54-.033.089-.924.638.044c.425.022.8.117 1.122.286.33.161.59.4.78.715.199.308.305.704.32 1.188l.01.308c.023.667-.076 1.24-.296 1.716a2.91 2.91 0 0 1-.946 1.177c-.418.3-.917.532-1.496.693a8.87 8.87 0 0 1-1.903.275Zm5.811-2.42v-2.585L20.496 14h1.166l.143 1.287v1.672l-.01.693-1.167.22Zm7.945 2.31h-1.254l-2.321-3.509-1.089 3.509h-1.111l1.21-3.784.308-.77L23.304 14h1.188l.935 1.496.924 1.386.275-.957.561-1.925h1.122l-1.276 3.894 1.54 2.288Z"/>
</svg>
